<svg id="Layer_1" data-name="Layer 1" xmlns="http://www.w3.org/2000/svg" viewBox="0 0 1262.34 283.73"><defs><style>.cls-1{fill:#fd5457;}</style></defs><path class="cls-1" d="M247.3,214.32a97.4,97.4,0,0,0-36.53-36q-23.11-13.14-52.49-13.15t-52.67,13.15a97,97,0,0,0-36.71,36Q55.51,237.2,55.5,266q0,28.45,13.4,51.31a96.91,96.91,0,0,0,36.71,36q23.31,13.14,52.67,13.14,26.79,0,47.72-11.34a88.23,88.23,0,0,0,32.67-29.95v28.33a10.38,10.38,0,0,0,3.12,7.74,11.28,11.28,0,0,0,8.26,3.06,10.21,10.21,0,0,0,7.71-3.06,10.76,10.76,0,0,0,2.94-7.74V266Q260.7,237.19,247.3,214.32Zm-19.09,92.54a77.74,77.74,0,0,1-28.63,28.81q-18.18,10.62-41.3,10.62-22.75,0-41.11-10.62a78.73,78.73,0,0,1-29-28.81Q77.52,288.68,77.53,266q0-23,10.64-41.23a78.78,78.78,0,0,1,29-28.8q18.35-10.62,41.11-10.62,23.13,0,41.3,10.62a77.79,77.79,0,0,1,28.63,28.8Q238.67,243,238.67,266,238.67,288.69,228.21,306.86Z" transform="translate(-55.5 -83.08)"/><path class="cls-1" d="M496.72,178.14V353.49a11.22,11.22,0,0,1-18.91,7.74,10.38,10.38,0,0,1-3.12-7.74V334.85a86.42,86.42,0,0,1-26.61,21.7Q428.81,366.81,405,366.81q-26.43,0-47.35-10.62A80.54,80.54,0,0,1,324.38,325q-12.31-20.52-12.3-50.05V178.14a10.42,10.42,0,0,1,3.12-7.75,11.7,11.7,0,0,1,15.78,0,10.42,10.42,0,0,1,3.12,7.75V275q0,23.42,9.36,39.07a59,59,0,0,0,25.33,23.4q16,7.76,36.16,7.75,19.82,0,35.6-7.56t25-20.35a48.44,48.44,0,0,0,9.18-29V178.14a10.28,10.28,0,0,1,3.12-7.93,11.23,11.23,0,0,1,7.89-2.88,11.09,11.09,0,0,1,8.08,2.88A10.66,10.66,0,0,1,496.72,178.14Z" transform="translate(-55.5 -83.08)"/><path class="cls-1" d="M654.55,366.45q-29.37,0-52.67-13.14a96.84,96.84,0,0,1-36.71-36q-13.41-22.86-13.4-51.67t13.4-51.49a97.29,97.29,0,0,1,36.71-35.82q23.29-13.14,52.67-13.15,26.43,0,47.54,11.17t32.85,29.88V93.88A10.25,10.25,0,0,1,738.06,86,11.18,11.18,0,0,1,746,83.08q5.14,0,8.08,2.88A10.61,10.61,0,0,1,757,93.88V267.79q-.36,28.09-14,50.41a99,99,0,0,1-36.52,35.29Q683.54,366.45,654.55,366.45Zm0-20.16q23.13,0,41.3-10.62a77.81,77.81,0,0,0,28.63-28.81q10.46-18.18,10.46-41.23t-10.46-41A78.2,78.2,0,0,0,695.85,196q-18.18-10.62-41.3-10.62-22.75,0-41.11,10.62a79.14,79.14,0,0,0-29,28.62q-10.65,18-10.64,41t10.64,41.23a78.73,78.73,0,0,0,29,28.81Q631.78,346.29,654.55,346.29Z" transform="translate(-55.5 -83.08)"/><path class="cls-1" d="M841,125.93a16.43,16.43,0,0,1-11.93-4.86,16.24,16.24,0,0,1-5-12.07q0-8.28,5.32-12.42a18.94,18.94,0,0,1,11.93-4.14A18.44,18.44,0,0,1,853,96.58q5.32,4.14,5.32,12.42a16.24,16.24,0,0,1-4.95,12.07A16.86,16.86,0,0,1,841,125.93Zm.37,238.36a10.79,10.79,0,0,1-7.89-3.06,10.38,10.38,0,0,1-3.12-7.74V178.14a10.28,10.28,0,0,1,3.12-7.93,11.21,11.21,0,0,1,7.89-2.88,11.08,11.08,0,0,1,8.07,2.88,10.62,10.62,0,0,1,2.94,7.93V353.49a10.31,10.31,0,0,1-11,10.8Z" transform="translate(-55.5 -83.08)"/><path class="cls-1" d="M1069,170.21a11.08,11.08,0,0,0-8.07-2.88,11.23,11.23,0,0,0-7.9,2.88,10.28,10.28,0,0,0-3.12,7.93V353.49a10.38,10.38,0,0,0,3.12,7.74,10.81,10.81,0,0,0,7.9,3.06,10.31,10.31,0,0,0,11-10.8V178.14A10.62,10.62,0,0,0,1069,170.21Z" transform="translate(-55.5 -83.08)"/><path class="cls-1" d="M1074.48,107.56q0,15.14-16.52,15.13a17.71,17.71,0,0,1-10.09-3.07,104.65,104.65,0,0,1-9.36-7,58.47,58.47,0,0,0-10.83-7,32,32,0,0,0-14.5-3.06q-15.42,0-26.25,6.12t-16.52,19.45q-5.68,13.32-5.69,35.28v11.17h48.46a9.81,9.81,0,0,1,7.16,2.7,10.34,10.34,0,0,1,0,14,9.81,9.81,0,0,1-7.16,2.7H964.72V353.49a10.1,10.1,0,0,1-3.3,7.74,11.45,11.45,0,0,1-8.07,3.06,10.81,10.81,0,0,1-7.9-3.06,10.38,10.38,0,0,1-3.12-7.74V194H913.7a9.81,9.81,0,0,1-7.16-2.7,10.34,10.34,0,0,1,0-14,9.81,9.81,0,0,1,7.16-2.7h28.63V163.37a108.71,108.71,0,0,1,7.16-40.14A61.62,61.62,0,0,1,973,94.06q16.34-11,44.24-11a138.93,138.93,0,0,1,26.06,2.52q13.21,2.52,22.21,7.92T1074.48,107.56Z" transform="translate(-55.5 -83.08)"/><path class="cls-1" d="M1306.1,212.16a87.06,87.06,0,0,0-32.67-34.2q-20.92-12.44-48.09-12.43-27.52,0-48.82,13a91.37,91.37,0,0,0-33.4,35.46Q1131,236.48,1131,266q0,29.17,12.85,51.85a92.22,92.22,0,0,0,35.42,35.47q22.57,12.78,51.58,12.78,17.25,0,36.15-6.84T1297.65,342q3.67-3.24,3.49-7.21c-.13-2.63-1.53-5-4.22-7.2a10,10,0,0,0-7.16-2.34,10.62,10.62,0,0,0-7.16,3.06q-8.44,7.94-22.94,12.79a90.24,90.24,0,0,1-28.81,4.86q-22.77,0-40.38-10.26a72.64,72.64,0,0,1-27.53-28.27,81.56,81.56,0,0,1-9.7-34.93h154a11,11,0,0,0,7.71-2.7,9.55,9.55,0,0,0,2.93-7.38Q1317.84,234,1306.1,212.16Zm-152.4,41.59a83.4,83.4,0,0,1,8.69-29.53A71.63,71.63,0,0,1,1188.08,196q16.34-10.26,37.26-10.26,22,0,38.36,10.26a67.82,67.82,0,0,1,25.14,28.26,81.08,81.08,0,0,1,7.81,29.53Z" transform="translate(-55.5 -83.08)"/><path class="cls-1" d="M205.45,256h0a3.65,3.65,0,0,0-3.87,3.39V275a3.65,3.65,0,0,0,3.87,3.39h0a3.65,3.65,0,0,0,3.86-3.39v-15.6A3.65,3.65,0,0,0,205.45,256ZM190.19,292h0a3.65,3.65,0,0,1-3.87-3.39V245.86a3.65,3.65,0,0,1,3.87-3.4h0a3.65,3.65,0,0,1,3.86,3.4v42.72A3.65,3.65,0,0,1,190.19,292Zm-15.07,13.57h0a3.65,3.65,0,0,1-3.86-3.4V232.29a3.64,3.64,0,0,1,3.86-3.39h0a3.65,3.65,0,0,1,3.86,3.39v69.85A3.65,3.65,0,0,1,175.12,305.54Zm-15.07-27.13h0a3.65,3.65,0,0,1-3.86-3.39v-15.6a3.65,3.65,0,0,1,3.86-3.39h0a3.65,3.65,0,0,1,3.86,3.39V275A3.65,3.65,0,0,1,160.05,278.41Zm-15.26,18.65h0a3.65,3.65,0,0,1-3.86-3.39v-52.9a3.65,3.65,0,0,1,3.86-3.39h0a3.65,3.65,0,0,1,3.86,3.39v52.9A3.65,3.65,0,0,1,144.79,297.06Zm-26.66-37.64v17.29a3.64,3.64,0,0,1-3.86,3.39h0a3.64,3.64,0,0,1-3.86-3.39V259.42a3.64,3.64,0,0,1,3.86-3.39h0A3.65,3.65,0,0,1,118.13,259.42Zm11.4,46.12h0a3.65,3.65,0,0,1-3.86-3.4V232.29a3.65,3.65,0,0,1,3.86-3.39h0a3.65,3.65,0,0,1,3.86,3.39v69.85A3.65,3.65,0,0,1,129.53,305.54Z" transform="translate(-55.5 -83.08)"/></svg>