<svg id="Layer_1" data-name="Layer 1" xmlns="http://www.w3.org/2000/svg" viewBox="0 0 390.37 382.92"><defs><style>.cls-1{fill:#fd5457;}</style></defs><path class="cls-1" d="M425.7,163.71a185.4,185.4,0,0,0-69.48-68.5q-44-25-99.87-25t-100.21,25a184.55,184.55,0,0,0-69.83,68.5Q60.81,207.23,60.82,262q0,54.12,25.49,97.61a184.26,184.26,0,0,0,69.83,68.5q44.34,25,100.21,25,51,0,90.79-21.58,38.91-21.09,62.15-56.94v53.86a19.74,19.74,0,0,0,5.93,14.73q5.92,5.82,15.72,5.82,9.06,0,14.66-5.82a20.43,20.43,0,0,0,5.59-14.73V262Q451.19,207.21,425.7,163.71Zm-36.31,176a147.93,147.93,0,0,1-54.47,54.8q-34.57,20.22-78.57,20.21-43.31,0-78.21-20.21A149.73,149.73,0,0,1,123,339.76Q102.7,305.17,102.72,262q0-43.83,20.25-78.43a149.83,149.83,0,0,1,55.17-54.81q34.92-20.19,78.21-20.2,44,0,78.57,20.2a148,148,0,0,1,54.47,54.81q19.91,34.59,19.9,78.43Q409.29,305.16,389.39,339.76Z" transform="translate(-60.82 -70.21)"/><path class="cls-1" d="M346.08,243.05h0c-4.06,0-7.35,2.89-7.35,6.45v29.68c0,3.56,3.29,6.45,7.35,6.45h0c4.06,0,7.35-2.89,7.35-6.45V249.5C353.43,245.94,350.14,243.05,346.08,243.05Zm-29,68.38h0c-4.06,0-7.35-2.88-7.35-6.45V223.7c0-3.56,3.29-6.45,7.35-6.45h0c4.06,0,7.35,2.89,7.35,6.45V305C324.4,308.55,321.11,311.43,317.05,311.43Zm-28.67,25.81h0c-4.06,0-7.35-2.89-7.35-6.45V197.9c0-3.57,3.29-6.45,7.35-6.45h0c4.06,0,7.35,2.88,7.35,6.45V330.79C295.73,334.35,292.44,337.24,288.38,337.24Zm-28.66-51.61h0c-4.06,0-7.35-2.89-7.35-6.45V249.5c0-3.56,3.29-6.45,7.35-6.45h0c4.06,0,7.35,2.89,7.35,6.45v29.68C267.07,282.74,263.78,285.63,259.72,285.63Zm-29,35.48h0c-4.06,0-7.35-2.89-7.35-6.45V214c0-3.56,3.29-6.45,7.35-6.45h0c4.06,0,7.35,2.89,7.35,6.45V314.66C238,318.22,234.74,321.11,230.68,321.11ZM180,249.5v32.9c0,3.57-3.29,6.46-7.35,6.46h0c-4.06,0-7.35-2.89-7.35-6.46V249.5c0-3.56,3.29-6.45,7.35-6.45h0C176.68,243.05,180,245.94,180,249.5Zm21.68,87.74h0c-4.06,0-7.35-2.89-7.35-6.45V197.9c0-3.57,3.29-6.45,7.35-6.45h0c4.06,0,7.35,2.88,7.35,6.45V330.79C209,334.35,205.71,337.24,201.65,337.24Z" transform="translate(-60.82 -70.21)"/></svg>