<svg id="Layer_1" data-name="Layer 1" xmlns="http://www.w3.org/2000/svg" viewBox="0 0 364.95 512"><defs><style>.cls-1{fill:#fff;}.cls-2{fill:#184655;}.cls-20,.cls-3{fill:#fd5457;}.cls-4{fill:#f7cc7f;}.cls-5{fill:#2758e2;}.cls-6{fill:#466eb6;}.cls-7{fill:#494848;}.cls-8{fill:#f7a491;}.cls-9{fill:#3c8f7c;}.cls-10{fill:#50bfa5;}.cls-11{fill:#fae0b2;}.cls-12{fill:#f47458;}.cls-13{fill:#f8a492;}.cls-14{fill:#63605f;}.cls-15{fill:#493303;}.cls-16{fill:#1d1d1d;}.cls-17{fill:#efefef;}.cls-18{fill:#f48c7f;}.cls-19{fill:#fcbc08;}.cls-20{font-size:26px;font-family:JosefinSans-Regular, Josefin Sans;}.cls-21{letter-spacing:-0.01em;}.cls-22{letter-spacing:-0.02em;}</style></defs><path class="cls-1" d="M57.57,480.64c61.18,12.13,203.47,1.47,222.47,0,22.34-2.67,51.66-10.15,69.67-33.15,26.47-33.8,5.68-72.05,3.37-166.85-2.37-96.9,18.14-106.66.56-142.13-30-60.52-113.95-81.1-168-81.47C121.87,56.61,31.71,83.91,7.57,145.81c-17.89,45.87,19.23,62.65,6.18,151.12C9.31,327,.8,353.78,3.08,399.18c1.54,30.74,7.16,53.07,23.59,67.42C37.39,476,49.4,479,57.57,480.64Z"/><path class="cls-2" d="M-2.56,377.86a1.2,1.2,0,0,0-1.17,1.23,1.2,1.2,0,0,0,1.17,1.23h370a1.21,1.21,0,0,0,1.21-1.21v0a1.21,1.21,0,0,0-1.21-1.22Z"/><path class="cls-3" d="M191.48,248.93l-2-2.92h-3.55a.49.49,0,0,1-.39-.79l2.15-2.82-1.1-3.37a.48.48,0,0,1,.62-.61l3.35,1.17,2.87-2.09a.48.48,0,0,1,.77.41l-.08,3.54,2.87,2.08a.49.49,0,0,1-.14.87l-3.4,1-1.09,3.38A.49.49,0,0,1,191.48,248.93Z"/><path class="cls-4" d="M285.11,184.62l1.87-4.33-2.51-4a.65.65,0,0,1,.61-1l4.7.44,3-3.62a.65.65,0,0,1,1.13.27l1,4.6,4.37,1.76a.65.65,0,0,1,.09,1.16l-4.06,2.41-.32,4.7a.65.65,0,0,1-1.07.45l-3.54-3.12-4.58,1.15A.65.65,0,0,1,285.11,184.62Z"/><path class="cls-5" d="M40.81,303.67l-2.4-4.59-5.15-.63a.71.71,0,0,1-.42-1.2l3.63-3.71-1-5.08a.72.72,0,0,1,1-.78L41.13,290l4.53-2.52a.72.72,0,0,1,1.05.73L46,293.32l3.79,3.53a.71.71,0,0,1-.36,1.23l-5.11.86-2.19,4.7A.71.71,0,0,1,40.81,303.67Z"/><polygon class="cls-6" points="315.06 193.34 315.12 195.85 311.09 196.39 310.73 200.07 307.78 200.97 308.24 202.46 312.18 201.26 312.52 197.77 316.71 197.21 316.62 193.43 315.06 193.34"/><path class="cls-3" d="M92.08,167.65A3.08,3.08,0,0,1,95.52,165a3.06,3.06,0,1,1-3.44,2.61Zm1.62-4.51.81-13.22a1.92,1.92,0,0,1,2.12-1.79l1.32.15a1.92,1.92,0,0,1,1.68,2.21l-2.12,13.08Z"/><path class="cls-7" d="M83.7,234.19c.09,3.28.93,10.32,8.37,11.48,4.61.72,10.53-3.42,10.14-6.47s-1.22-10.8-6-12.57C92.14,225.14,83.5,226.88,83.7,234.19Z"/><path class="cls-8" d="M145.74,340.19c1,4.42,1.88,10.79,2.19,11.14.15.17.45,1.29.6,1.47,4.8,1.74,9-.06,12.37-2-2.62-.47-6.15-.95-6.65-1.3-1.82-1.28-1.39-5.87-1.71-10C151.24,339.7,148.09,338.88,145.74,340.19Z"/><path class="cls-6" d="M147.83,351.08c0,1.75,1.15,5.47,1.5,5.47s14.85-1.26,16.21-3.47c.81-1.34-1.41-1.68-4.64-2.32C157.55,352.74,148.23,352.18,147.83,351.08Z"/><path class="cls-8" d="M77.21,350A65.93,65.93,0,0,1,70.07,355c-.21.1-1.36.1-1.58.19-3,4.16-2.36,8.71-1.35,12.46,1.16-2.4,2.51-5.75,3-6.05a69.48,69.48,0,0,1,9.24-4.46C77.58,355.1,77.84,352.65,77.21,350Z"/><path class="cls-8" d="M84.81,257.78,74.49,276.55s-6.89,8.68-10.44,13.13c.76,1.25,1.5,2.53,2.16,3.85,3.53-3,11.05-9.38,13.73-12.9,4-5.2,11.14-17.56,11.14-17.56Z"/><path class="cls-9" d="M112.24,290.44l-11,16.27s-.63-1.09,3.32.36,29.43,6.2,30.94,8c1.07,1.28,9,26.27,10.49,29.48,2.29.93,5.63-.1,8-.44.15-12-6.23-34-7.93-36.53-3.8-5.74-21.9-11.95-30-15.43-1.32-.56-2.35-1.07-3-1.38Z"/><path class="cls-6" d="M69.89,355c-1.69-.43-5.13-.42-5.22-.08s-2.77,14.64-1,16.54c1.06,1.14,2-.9,3.47-3.85C66.13,363.85,68.73,355.09,69.89,355Z"/><path class="cls-10" d="M109.34,301.9c.1-1.23,2.71-8.36,3.64-11.14,0-.09-.66-1.69-1.4-4l-1.06.17-15.68.71s-6.32,10.67-5.58,15.57c1,6.84,10.92,31.17,9.41,32.31-2.71,2.07-16,9.78-22.85,14.36a20.71,20.71,0,0,0,3.34,8.46c5.56-1.94,29.6-11.63,32.07-19.06C113.41,332.71,109.18,304,109.34,301.9Z"/><path class="cls-4" d="M109.09,241.93s-4.32,6.79-6.87,7l9,8.34s6.14-9.2,6.78-10.78C118,246.52,112.42,241.54,109.09,241.93Z"/><path class="cls-11" d="M112.24,282.94a24.13,24.13,0,0,0,.75,7.83c-3.62.78-16.46,2.41-19.6-1.41-.12-.14,4.44-8.18,3.81-11.46-.92-4.85-4.94-13.06-5.28-13.5-.56-.74-2.61,3.08-2.61,3.08-2.41,0-7.93-5.58-7.93-5.58S87.09,252,88.66,251s14.54-2.35,14.55-2.35c1-.07,3.56,2.2,4.28,2.91C115.69,259.76,113.48,271.49,112.24,282.94Z"/><path class="cls-8" d="M95.9,244.5a36.88,36.88,0,0,1,1.42,6.57c0,1.9.77,4.49,4.75,4.1s.72-4.4.15-6.21a71.93,71.93,0,0,1-1.24-7.5Z"/><path class="cls-12" d="M101.36,244.32c-.23-1.56-.38-2.86-.38-2.86l-5.08,3s.29,1,.6,2.18A4.7,4.7,0,0,0,101.36,244.32Z"/><path class="cls-8" d="M91.75,230.4a7.19,7.19,0,0,0-2.63,4.22c-.54,2.75,1.1,9.56,7,10.63s7.83-4.65,6.21-8.8S97.6,227.16,91.75,230.4Z"/><path class="cls-8" d="M102.9,234.72c0,1.16-.54,2.1-1.21,2.11s-1.23-.94-1.24-2.09.54-2.11,1.21-2.11S102.89,233.56,102.9,234.72Z"/><path class="cls-8" d="M91.69,240.49c.78.94.9,2.12.27,2.64s-1.77.2-2.55-.73-.9-2.12-.27-2.64S90.91,239.56,91.69,240.49Z"/><path class="cls-7" d="M85.69,227.8c.24-3.18,2.48-15-4.74-16.11s-8.78,6.77-12.78-3.85c-3.72-9.85-14.75-6-15.21,1.44a6.65,6.65,0,0,0-3.15.49,7.17,7.17,0,0,0-3.55,9.47c.25.59.11,1.18.48,1.68-.85,3.25-.26,7,2.25,10.76,6.87,10.33,13.75-.55,18.4,0s1.61,4.21,5.64,7,7.26,2.1,13.8-5.63L88.45,231A2.76,2.76,0,0,1,85.69,227.8Z"/><path class="cls-13" d="M288.86,317.79a58,58,0,0,0,7.25-3.61c.3-.16,1.53-1.06,1.7-1.19,3.19,1.9,4.36,3.52,6.88,6.06-1.86.1-2.65-1.43-3.37-1.27s-3.57,2-7.81,5.29C292.78,320.7,290.64,319.5,288.86,317.79Z"/><path class="cls-13" d="M237.59,354.92a40.73,40.73,0,0,0,2.51,7.6c.08.18.64.33.74.52-2.4,2.84-3.44,7.55-6.37,9.61.21-1.85,1.46-5.33,1.42-6.06S234.5,362.73,232,358C234.43,357.68,235.61,356.39,237.59,354.92Z"/><path class="cls-5" d="M239.11,363.3a1.6,1.6,0,0,1,2.18-.91c.77.49,1.8,1,2.58,1.56a1.74,1.74,0,0,1,.9,1.43c-.06.44-10.3,12.41-11.61,12.59s1.11-10,2.55-11C237,366.05,237.63,367,239.11,363.3Z"/><path class="cls-5" d="M297.51,314.19a1.6,1.6,0,0,1-.5-2.31c.62-.68,1.33-1.6,2-2.26a1.73,1.73,0,0,1,1.57-.63c.42.14,10.37,12.35,10.31,13.68s-9.6-2.88-10.36-4.48C299.84,316.76,300.89,316.3,297.51,314.19Z"/><path class="cls-7" d="M241.5,310.29s20.2,27.21,23.71,27.46c3.29.24,28.76-14,28.76-14l-3.32-7.34-20.39,7.34-14.2-26.88Z"/><path class="cls-14" d="M253.13,287.29s3.7.88,5.81,6.52-1.42,10.31-10.28,18.47c-8.62,8-17.13,15.42-17.13,15.42l7,28.78-5.81,4.93s-13.47-29.25-13.86-36.22c-.15-2.66,20.55-33.5,20.55-33.5Z"/><path class="cls-8" d="M237.51,252.06l-11.26,6.29-8.92,4.29s-2.18-7.4-1.45-11a4.55,4.55,0,0,1,.8-1.41c1.47-2.21-1.67-5.64-1.67-5.64s-1.89-.53-3.18,2.59,1.09,4.45,1.09,4.45-2.71,9.46-1.58,16.36c.6,3.61,9.63,1,16.82-2.15a76.75,76.75,0,0,0,10.51-5.54Z"/><path class="cls-5" d="M240,251a1.15,1.15,0,0,0-1.27-.12c-1.39.52-14.91,7.94-14.91,7.94s1.21,6.5,4.38,8.49l6.81-2.07,5.21-13.17A1,1,0,0,0,240,251Z"/><path class="cls-15" d="M271.15,223.22c-5.13-3.15-11.52-2.54-15.33,1.68a12.75,12.75,0,0,0-9.64.27c-5.73,2.68-10.81,9.68-6.48,14.76-.92,6.74,3.11,10.66,8.13,11.11,2.74,5.48,12.42,6,18,1.52,4.6,1.78,10.07,1,13.47-2.3a27,27,0,0,1,2.29-2.19c-.33.16,12.83-1.58,12.23-13.18C293.19,223.06,279,218.52,271.15,223.22Z"/><path class="cls-5" d="M247.84,250.08l8.35.46-1.38,11.67s-4,11.23-2.39,16.62,3.23,9.34,3.23,9.34-4.76,5.45-18.08,4.34c0,0,.18-9.68,0-12.62S234,264.75,234.46,262s3.41-10.38,4.17-11,3.78-1,3.78-1Z"/><path class="cls-8" d="M248.23,243.67s-.14,1-.27,2.16a22.2,22.2,0,0,0-.19,4.47c.26,1.86-1.49,6.76-5.44,6.94s-.09-5.41.21-7.26.3-8.56.3-8.56Z"/><path class="cls-12" d="M242.87,244.26c0-1.55,0-2.84,0-2.84l5.39,2.25s-.14,1-.28,2.22A4.62,4.62,0,0,1,242.87,244.26Z"/><path class="cls-8" d="M248.64,229.82a6.8,6.8,0,0,1,3.47,3.19c1.19,2.38,1.4,9-3.73,11.48s-8.34-2.27-7.9-6.47S242.49,228.33,248.64,229.82Z"/><path class="cls-8" d="M239.55,236.58c.28,1.06,1,1.78,1.63,1.62s.89-1.17.6-2.23-1-1.78-1.63-1.61S239.26,235.52,239.55,236.58Z"/><path class="cls-8" d="M251.49,238.85c-.47,1.05-.29,2.16.42,2.48s1.67-.27,2.15-1.32.29-2.16-.42-2.48S252,237.8,251.49,238.85Z"/><path class="cls-16" d="M140.18,289.87c-.79-2.29-32.75-95.4-34.15-99.47a12.12,12.12,0,0,0-15.28-7.48L43.07,198.8a11.84,11.84,0,0,0-7.53,15.08l34.14,99.46A12.11,12.11,0,0,0,85,320.82l47.68-15.88A11.85,11.85,0,0,0,140.18,289.87Zm-11.58,2.51-48.17,16a7,7,0,0,1-8.81-4.32L40,212.11a6.83,6.83,0,0,1,4.34-8.7l48.17-16a7,7,0,0,1,8.81,4.31l31.58,92A6.83,6.83,0,0,1,128.6,292.38Z"/><path class="cls-16" d="M116.25,303.16c.73,2.14-2.64,5.2-7.54,6.83s-9.45,1.22-10.19-.92,2.64-5.2,7.53-6.83S115.51,301,116.25,303.16Z"/><path class="cls-16" d="M114.94,303.34c.69,2-2.1,4.75-6.23,6.13s-8,.86-8.74-1.15,2.1-4.76,6.24-6.13S114.25,301.32,114.94,303.34Z"/><path class="cls-3" d="M290.48,196.75,236.9,184.64c-7.08-1.6-14.06,2.59-15.59,9.36L196.86,302.14c-1.53,6.77,3,13.55,10,15.16l53.58,12.11c7.08,1.6,14.06-2.59,15.59-9.36l24.45-108.14C302.06,205.14,297.56,198.35,290.48,196.75ZM272.82,310.5a7.43,7.43,0,0,1-9,5.4L209.7,303.66a7.41,7.41,0,0,1-5.79-8.74l22.61-100a7.43,7.43,0,0,1,9-5.4l54.13,12.24a7.41,7.41,0,0,1,5.79,8.74Z"/><path class="cls-3" d="M246.17,318.75c-.53,2.33-5.41,3.21-10.91,2s-9.54-4.14-9-6.46,5.41-3.21,10.91-2S246.7,316.42,246.17,318.75Z"/><path class="cls-3" d="M244.85,318.18c-.49,2.19-4.66,3.11-9.31,2.06s-8-3.67-7.51-5.86,4.66-3.11,9.3-2.06S245.35,316,244.85,318.18Z"/><path class="cls-8" d="M255.86,253.57s17.6-4.28,21.53-5,17.54-5.63,18.06-5.84,2.47-7.21,3.24-6.72-1.18,3.53-.22,3.92,9.16-3.27,9.22-2.61c.11,1.24-4.93,2.44-4.77,3s5.14-1.73,5.75-.88-4.92,1.74-5,2.23,5.31-.15,5,.88c-.16.56-4.83.44-4.63,1.09s3.75,1.29,3.5,1.91-2.9-.93-4.74-.46-3.41-.14-6.11,1.45-11.59,8.29-17.9,9.67l-20.26,4.48Z"/><path class="cls-5" d="M251.59,250.86a16.31,16.31,0,0,1,4.6-.32c.8,0,1.93,0,2.78,0,3.18-.09,6.2.06,6.2.06s1.6,7.73.27,9.7c0,0-12.44,1.78-12.14,2.64Z"/><path class="cls-8" d="M208.45,250.9l1.07-1.35a2.61,2.61,0,0,1,1.67-1.14c1-.1,1-1.36-.09-1.18a9.78,9.78,0,0,0-1.73.44,20.12,20.12,0,0,0,2.15-1.23c.21-.79-1-1.1-2.52.06S208.45,250.9,208.45,250.9Z"/><path class="cls-8" d="M64.69,291.59a9.61,9.61,0,0,0-1.37.86l0-.06,1-1.07c1-.77.48-1.6-.47-1.08a10.4,10.4,0,0,0-1.49,1A11.73,11.73,0,0,0,64,289.35c0-.82-1.26-.73-2.36.87-1,1.4.46,3.85.87,4.43a3,3,0,0,0,1.16,1.23l.25-1.6a2.65,2.65,0,0,1,1.21-1.61C66.07,292.25,65.63,291.07,64.69,291.59Z"/><path class="cls-8" d="M212.34,246s2.5-2,2.89-1.15.23,2.7-.14,2.57-.33-1.45-1.4-1.1C213.39,246.4,211.9,246.87,212.34,246Z"/><path class="cls-3" d="M166.08,186.89a6.12,6.12,0,0,1,3.41-4.16,5,5,0,0,1,6.58,2.68c1.36,2.94.53,7.55-4.41,13.52-7.74-.08-11.8-2.43-13.16-5.37a4.94,4.94,0,0,1,2.2-6.75A6.11,6.11,0,0,1,166.08,186.89Z"/><path class="cls-11" d="M196.37,198c13-2.95,25,1.13,26.85,9.13.91,4-.91,8.21-4.58,11.8l8,10.58-13.19-6.64A36.93,36.93,0,0,1,203,226.9c-13,2.95-25-1.13-26.85-9.12S183.36,200.91,196.37,198Z"/><path class="cls-4" d="M208.9,211.83a8.42,8.42,0,1,1-8.07-8.75A8.4,8.4,0,0,1,208.9,211.83Z"/><path class="cls-17" d="M195.94,212.64a4.5,4.5,0,0,0,9,.37Z"/><polygon class="cls-18" points="32.7 235.18 28.4 236.04 28.94 240.08 24.75 241.11 24.78 245.04 21.77 246.32 22.42 247.85 26.44 246.13 26.41 242.41 30.77 241.34 30.25 237.36 34.14 236.58 32.7 235.18"/><polygon class="cls-4" points="318.66 268.45 317.46 264.24 313.47 265.09 312.11 261 308.19 261.35 306.67 258.45 305.2 259.22 307.24 263.09 310.95 262.76 312.37 267.02 316.29 266.18 317.37 270 318.66 268.45"/><polygon class="cls-10" points="33.41 190.27 31.01 191 29.4 187.27 25.75 187.92 24.09 185.32 22.78 186.17 25 189.63 28.45 189.03 30.13 192.91 33.74 191.8 33.41 190.27"/><path class="cls-8" d="M122.36,205.35a8.7,8.7,0,0,0-3.77-1.34c-1-.09-5.22-.09-5.77.93s3.91,3.92,4.15,5.13-2.59,19.89-3.4,23.6a50.46,50.46,0,0,1-3.41,8.3c2.1.33,4.67,2.05,6.28,3.28,2.07-4.52,4.18-9.6,4.45-12C121.42,228.44,123.2,206,122.36,205.35Z"/><path class="cls-6" d="M134.69,173.12c-1.45-.13-9,5.65-9,5.65l-.34.46s10.23,1.72,10.71,1.4C137.33,179.77,135.88,173.22,134.69,173.12Zm-9,5.83a55.05,55.05,0,0,1,8.65-4.46,11.6,11.6,0,0,1,.92,4.9C134.06,179.3,128.68,179.42,125.69,179Z"/><path class="cls-19" d="M123.62,168.33c-1.31-3.51-2.59-3.35-3.5-3.23s-5,3-4.6,5.23,8.54,8.71,8.54,8.71l.54-.63S124.93,171.83,123.62,168.33Zm-6.86,1.78c-.19-1.11,2.64-3.47,3.57-3.76a1.47,1.47,0,0,1,.55,0c.17,0,.79.37,1.56,2.43a39,39,0,0,1,1.71,9.53C120.89,175.58,117,171.07,116.76,170.11Z"/><rect class="cls-6" x="123.26" y="177.96" width="3.02" height="2.12" rx="0.83" transform="translate(-81.64 249.83) rotate(-74.06)"/><path class="cls-3" d="M132.43,209l-28.17-8a3,3,0,0,1-2.11-3.52l5-23.05,36.69,10.47L135.55,208C135.2,209,133.83,209.44,132.43,209Z"/><path class="cls-11" d="M143.92,190.26,104.07,179l.31-2.68a2.62,2.62,0,0,1,3.33-2.22l36,10.39c1.28.37,2.06,1.45,1.68,2.33Z"/><rect class="cls-6" x="121.52" y="181.4" width="5.65" height="0.79" transform="matrix(0.27, -0.96, 0.96, 0.27, -84.6, 251.45)"/><rect class="cls-6" x="110.91" y="194.44" width="21.22" height="0.99" transform="translate(-99.28 258.27) rotate(-74.07)"/><path class="cls-8" d="M115.1,205.32l.1-1.2a24.1,24.1,0,0,1-2.66-.92l-.15-.91c-.51-1.26-1.07-.36-1.23-.07a6.51,6.51,0,0,0,.14,1.79s1.9,2,2.71,2.77c.4.37,1.68,1.41,1.68,1.41l1-1.41Z"/><text class="cls-20" transform="translate(105.22 434.27)"><tspan class="cls-21">R</tspan><tspan x="16.8" y="0">e</tspan><tspan class="cls-22" x="30.32" y="0">f</tspan><tspan x="39.6" y="0">er &amp; Earn</tspan></text></svg>