<svg width="51" height="63" viewBox="0 0 51 63" fill="none" xmlns="http://www.w3.org/2000/svg">
<path d="M31.375 2H7.875C6.31685 2 4.82252 2.61897 3.72075 3.72075C2.61897 4.82252 2 6.31685 2 7.875V54.875C2 56.4331 2.61897 57.9275 3.72075 59.0292C4.82252 60.131 6.31685 60.75 7.875 60.75H43.125C44.6831 60.75 46.1775 60.131 47.2793 59.0292C48.381 57.9275 49 56.4331 49 54.875V19.625L31.375 2Z" stroke="#707070" stroke-width="3.5" stroke-linecap="round" stroke-linejoin="round"/>
<path d="M31.375 2V19.625H49" stroke="#707070" stroke-width="3.5" stroke-linecap="round" stroke-linejoin="round"/>
<path d="M37.25 34.313H13.75" stroke="#707070" stroke-width="3.5" stroke-linecap="round" stroke-linejoin="round"/>
<path d="M37.25 46.0625H13.75" stroke="#707070" stroke-width="3.5" stroke-linecap="round" stroke-linejoin="round"/>
<path d="M19.625 22.5623H16.6875H13.75" stroke="#707070" stroke-width="3.5" stroke-linecap="round" stroke-linejoin="round"/>
</svg>
