<svg width="464" height="391" viewBox="0 0 464 391" fill="none" xmlns="http://www.w3.org/2000/svg">
<path d="M90.837 46.2535C89.9009 46.3566 88.9988 46.6633 88.1943 47.1521C87.3898 47.6408 86.7025 48.2997 86.1807 49.0823C85.6589 49.8649 85.3154 50.7522 85.1743 51.6817C85.0332 52.6111 85.098 53.5602 85.3641 54.4619L66.738 67.7477L77.8406 72.0125L93.8261 58.7423C95.3141 58.1957 96.5495 57.1232 97.2983 55.728C98.0471 54.3329 98.2572 52.7121 97.8887 51.1726C97.5203 49.6332 96.5989 48.2822 95.2992 47.3756C93.9996 46.469 92.4119 46.0697 90.837 46.2535L90.837 46.2535Z" fill="#FFB8B8"/>
<path d="M89.1063 66.2664L66.0025 89.471C62.8362 92.6306 58.661 94.5831 54.2024 94.9893L25.6538 97.5894C24.6071 97.689 23.5511 97.5783 22.5481 97.2637C21.5451 96.949 20.6155 96.4369 19.8141 95.7576C18.7055 94.8313 17.8811 93.6117 17.4356 92.2388C16.9902 90.8659 16.9418 89.3954 17.2959 87.9962C17.65 86.5971 18.3924 85.3261 19.4377 84.3291C20.483 83.3322 21.7888 82.6498 23.2052 82.3603L52.3708 76.1615L78.924 56.6237C79.2931 56.4163 79.7102 56.3089 80.1338 56.3121C80.5573 56.3152 80.9727 56.4288 81.3388 56.6417L88.5598 62.5464C88.9943 62.784 89.3433 63.1515 89.5579 63.5972C89.7725 64.0429 89.8419 64.5445 89.7563 65.0316C89.6721 65.5002 89.4451 65.9314 89.1063 66.2664Z" fill="#4A382E"/>
<path d="M366.106 78.736C366.278 77.1519 365.957 75.5534 365.187 74.1578C364.417 72.7621 363.236 71.6369 361.802 70.9351L218.018 0.787183C217.104 0.340658 216.11 0.0782714 215.094 0.015011C214.079 -0.0482494 213.06 0.0888503 212.097 0.418485C211.134 0.748119 210.246 1.26383 209.483 1.93618C208.72 2.60853 208.097 3.42433 207.649 4.33703L207.647 4.34242L153.718 114.48C152.818 116.325 152.688 118.451 153.355 120.392C154.023 122.333 155.434 123.93 157.28 124.833L301.064 194.981C302.912 195.88 305.042 196.01 306.986 195.344C308.93 194.677 310.531 193.268 311.436 191.426L365.364 81.288C365.758 80.4868 366.009 79.6232 366.106 78.736Z" fill="#E6E6E6"/>
<path d="M281.871 323.188H95.3039C92.9551 323.185 90.7032 322.253 89.0423 320.595C87.3815 318.937 86.4472 316.689 86.4446 314.345V61.5309C86.4472 59.1863 87.3815 56.9385 89.0423 55.2807C90.7032 53.6228 92.9551 52.6902 95.3039 52.6876H281.871C284.22 52.6902 286.472 53.6228 288.133 55.2807C289.794 56.9385 290.728 59.1863 290.731 61.5309V314.345C290.728 316.689 289.794 318.937 288.133 320.595C286.472 322.253 284.22 323.185 281.871 323.188Z" fill="#FEFEFE"/>
<path d="M144.788 128.074C151.511 128.074 156.96 122.634 156.96 115.924C156.96 109.214 151.511 103.774 144.788 103.774C138.066 103.774 132.616 109.214 132.616 115.924C132.616 122.634 138.066 128.074 144.788 128.074Z" fill="#E6E6E6"/>
<path d="M126.236 149.132C127.956 150.108 129.756 150.936 131.616 151.607L131.945 151.721C135.693 153.034 139.637 153.703 143.609 153.698C144.408 153.698 145.178 153.67 145.897 153.616C147.647 153.509 149.387 153.27 151.101 152.9C152.041 152.695 152.979 152.449 153.886 152.171C154.106 152.107 154.309 152.043 154.531 151.974C158.229 150.777 161.703 148.98 164.815 146.655C164.565 146.183 164.292 145.725 163.995 145.281C162.396 142.84 160.211 140.837 157.64 139.452C155.07 138.067 152.193 137.343 149.272 137.347H142.865C139.486 137.348 136.179 138.318 133.336 140.142C130.494 141.966 128.237 144.567 126.833 147.635C126.609 148.124 126.409 148.623 126.236 149.132Z" fill="#E6E6E6"/>
<path d="M148.918 152.597C148.51 152.627 148.116 152.764 147.778 152.996C149.496 152.889 151.203 152.653 152.884 152.288L148.918 152.597Z" fill="#4A382E"/>
<path d="M145.525 82.9533C137.686 82.9541 130.066 85.538 123.848 90.304C117.63 95.0701 113.163 101.752 111.139 109.311C109.115 116.871 109.647 124.887 112.654 132.114C115.66 139.34 120.973 145.374 127.767 149.279C129.57 150.321 131.463 151.201 133.424 151.907L133.757 152.022C137.538 153.348 141.517 154.022 145.525 154.018C146.3 154.018 147.075 153.992 147.838 153.934C149.602 153.826 151.356 153.585 153.085 153.212C154.052 153.001 155 152.751 155.897 152.476C156.115 152.412 156.32 152.349 156.544 152.278C164.601 149.659 171.458 144.256 175.882 137.042C180.306 129.828 182.007 121.275 180.679 112.921C179.351 104.567 175.082 96.9599 168.638 91.4668C162.194 85.9737 153.999 82.955 145.525 82.9533L145.525 82.9533ZM166.179 145.103C163.108 147.469 159.651 149.288 155.961 150.481C155.762 150.545 155.557 150.609 155.352 150.673C154.5 150.935 153.603 151.165 152.681 151.364C151.046 151.72 149.386 151.951 147.716 152.054C146.992 152.105 146.255 152.131 145.525 152.131C141.732 152.133 137.965 151.496 134.385 150.245L134.071 150.136C132.121 149.436 130.242 148.554 128.459 147.501C122.248 143.852 117.374 138.31 114.553 131.69C111.732 125.071 111.112 117.722 112.785 110.725C114.457 103.728 118.334 97.4503 123.846 92.8155C129.358 88.1807 136.214 85.4328 143.406 84.9756C150.598 84.5183 157.748 86.3759 163.804 90.2752C169.86 94.1746 174.504 99.9102 177.052 106.639C179.601 113.368 179.92 120.736 177.963 127.659C176.006 134.582 171.875 140.697 166.179 145.103V145.103Z" fill="#E6E6E6"/>
<path d="M281.871 323.188H95.3039C92.9551 323.185 90.7032 322.253 89.0423 320.595C87.3815 318.937 86.4472 316.689 86.4446 314.345V61.5309C86.4472 59.1863 87.3815 56.9385 89.0423 55.2807C90.7032 53.6228 92.9551 52.6902 95.3039 52.6876H281.871C284.22 52.6902 286.472 53.6228 288.133 55.2807C289.794 56.9385 290.728 59.1863 290.731 61.5309V314.345C290.728 316.689 289.794 318.937 288.133 320.595C286.472 322.253 284.22 323.185 281.871 323.188ZM95.3039 53.728C93.2314 53.7303 91.2445 54.5532 89.779 56.016C88.3135 57.4788 87.4892 59.4622 87.4869 61.5309V314.345C87.4892 316.413 88.3135 318.397 89.779 319.86C91.2445 321.322 93.2314 322.145 95.3039 322.148H281.871C283.944 322.145 285.931 321.322 287.396 319.86C288.862 318.397 289.686 316.413 289.688 314.345V61.5309C289.686 59.4622 288.862 57.4788 287.396 56.016C285.931 54.5532 283.944 53.7303 281.871 53.728L95.3039 53.728Z" fill="#E6E6E6"/>
<path d="M245.754 118.348H192.962C191.854 118.348 190.792 117.909 190.009 117.127C189.225 116.345 188.785 115.285 188.785 114.179C188.785 113.074 189.225 112.013 190.009 111.232C190.792 110.45 191.854 110.01 192.962 110.01H245.754C246.862 110.01 247.924 110.45 248.707 111.232C249.49 112.013 249.93 113.074 249.93 114.179C249.93 115.285 249.49 116.345 248.707 117.127C247.924 117.909 246.862 118.348 245.754 118.348Z" fill="#E6E6E6"/>
<path d="M262.982 132.418H192.962C191.854 132.418 190.792 131.979 190.009 131.197C189.225 130.416 188.785 129.355 188.785 128.25C188.785 127.144 189.225 126.084 190.009 125.302C190.792 124.52 191.854 124.081 192.962 124.081H262.982C264.089 124.081 265.152 124.52 265.935 125.302C266.718 126.084 267.158 127.144 267.158 128.25C267.158 129.355 266.718 130.416 265.935 131.197C265.152 131.979 264.089 132.418 262.982 132.418Z" fill="#E6E6E6"/>
<path d="M245.677 186.383H114.194C113.086 186.383 112.024 185.944 111.24 185.162C110.457 184.38 110.017 183.32 110.017 182.214C110.017 181.109 110.457 180.048 111.24 179.266C112.024 178.485 113.086 178.045 114.194 178.045H245.677C246.785 178.045 247.847 178.485 248.631 179.266C249.414 180.048 249.854 181.109 249.854 182.214C249.854 183.32 249.414 184.38 248.631 185.162C247.847 185.944 246.785 186.383 245.677 186.383Z" fill="#E6E6E6"/>
<path d="M262.905 200.453H114.194C113.086 200.453 112.024 200.014 111.24 199.232C110.457 198.451 110.017 197.39 110.017 196.285C110.017 195.179 110.457 194.119 111.24 193.337C112.024 192.555 113.086 192.116 114.194 192.116H262.905C264.013 192.116 265.075 192.555 265.859 193.337C266.642 194.119 267.082 195.179 267.082 196.285C267.082 197.39 266.642 198.451 265.859 199.232C265.075 200.014 264.013 200.453 262.905 200.453Z" fill="#E6E6E6"/>
<path d="M245.677 232.792H114.194C113.086 232.792 112.024 232.353 111.24 231.571C110.457 230.789 110.017 229.729 110.017 228.623C110.017 227.517 110.457 226.457 111.24 225.675C112.024 224.893 113.086 224.454 114.194 224.454H245.677C246.785 224.454 247.847 224.893 248.631 225.675C249.414 226.457 249.854 227.517 249.854 228.623C249.854 229.729 249.414 230.789 248.631 231.571C247.847 232.353 246.785 232.792 245.677 232.792Z" fill="#E6E6E6"/>
<path d="M262.905 246.86H114.194C113.086 246.86 112.024 246.421 111.24 245.639C110.457 244.858 110.017 243.797 110.017 242.691C110.017 241.586 110.457 240.525 111.24 239.744C112.024 238.962 113.086 238.523 114.194 238.523H262.905C264.013 238.523 265.075 238.962 265.859 239.744C266.642 240.525 267.082 241.586 267.082 242.691C267.082 243.797 266.642 244.858 265.859 245.639C265.075 246.421 264.013 246.86 262.905 246.86Z" fill="#E6E6E6"/>
<path d="M245.677 279.199H114.194C113.086 279.199 112.024 278.76 111.24 277.978C110.457 277.196 110.017 276.136 110.017 275.03C110.017 273.924 110.457 272.864 111.24 272.082C112.024 271.3 113.086 270.861 114.194 270.861H245.677C246.785 270.861 247.847 271.3 248.631 272.082C249.414 272.864 249.854 273.924 249.854 275.03C249.854 276.136 249.414 277.196 248.631 277.978C247.847 278.76 246.785 279.199 245.677 279.199Z" fill="#E6E6E6"/>
<path d="M262.905 293.269H114.194C113.086 293.269 112.024 292.83 111.24 292.048C110.457 291.266 110.017 290.206 110.017 289.1C110.017 287.994 110.457 286.934 111.24 286.152C112.024 285.37 113.086 284.931 114.194 284.931H262.905C264.012 284.933 265.073 285.372 265.855 286.154C266.637 286.936 267.077 287.995 267.077 289.1C267.077 290.205 266.637 291.265 265.855 292.046C265.073 292.828 264.012 293.268 262.905 293.269Z" fill="#E6E6E6"/>
<path d="M359.699 150.995C359.871 149.411 359.55 147.813 358.78 146.417C358.01 145.021 356.829 143.896 355.395 143.194L211.611 73.0465C210.697 72.6 209.703 72.3376 208.688 72.2743C207.672 72.2111 206.653 72.3482 205.69 72.6778C204.727 73.0074 203.839 73.5231 203.076 74.1955C202.313 74.8678 201.69 75.6836 201.242 76.5963L201.24 76.6017L147.311 186.74C146.411 188.585 146.281 190.71 146.948 192.651C147.616 194.592 149.027 196.189 150.873 197.093L294.657 267.241C296.505 268.139 298.635 268.269 300.579 267.603C302.523 266.936 304.124 265.528 305.029 263.685L358.957 153.547C359.351 152.746 359.602 151.883 359.699 150.995Z" fill="#FEFEFE"/>
<path d="M359.699 150.995C359.871 149.411 359.55 147.813 358.78 146.417C358.01 145.021 356.829 143.896 355.395 143.194L211.611 73.0465C210.697 72.6 209.703 72.3376 208.688 72.2743C207.672 72.2111 206.653 72.3482 205.69 72.6778C204.727 73.0074 203.839 73.5231 203.076 74.1955C202.313 74.8678 201.69 75.6836 201.242 76.5963L201.24 76.6017L147.311 186.74C146.411 188.585 146.281 190.71 146.948 192.651C147.616 194.592 149.027 196.189 150.873 197.093L294.657 267.241C296.505 268.139 298.635 268.269 300.579 267.603C302.523 266.936 304.124 265.528 305.029 263.685L358.957 153.547C359.351 152.746 359.602 151.883 359.699 150.995ZM304.209 263.286C303.411 264.911 301.999 266.155 300.283 266.743C298.568 267.331 296.688 267.216 295.058 266.423L151.274 196.275C149.645 195.478 148.399 194.068 147.81 192.356C147.221 190.643 147.336 188.767 148.131 187.14L202.059 77.0016C202.858 75.3758 204.27 74.1325 205.985 73.5445C207.701 72.9564 209.58 73.0715 211.211 73.8646L354.995 144.013C356.624 144.81 357.869 146.219 358.458 147.931C359.047 149.644 358.932 151.52 358.138 153.147L304.209 263.286Z" fill="#4A382E"/>
<path d="M344.017 156.004L306.361 232.91C306.109 233.424 305.664 233.817 305.123 234.002C304.582 234.188 303.988 234.152 303.474 233.901H303.474L172.683 170.092C172.589 170.047 172.5 169.995 172.415 169.935C171.987 169.643 171.677 169.207 171.544 168.707C171.411 168.206 171.463 167.675 171.691 167.209L209.348 90.3032C209.472 90.049 209.645 89.8217 209.858 89.6344C210.07 89.447 210.317 89.3032 210.585 89.2113C210.853 89.1193 211.137 89.0809 211.42 89.0983C211.703 89.1157 211.98 89.1886 212.234 89.3127L343.025 153.122C343.54 153.372 343.933 153.817 344.119 154.357C344.305 154.898 344.269 155.49 344.018 156.003V156.003L344.017 156.004Z" fill="#E6E6E6"/>
<path d="M229.192 152.098C239.653 152.098 248.133 143.633 248.133 133.191C248.133 122.749 239.653 114.284 229.192 114.284C218.731 114.284 210.251 122.749 210.251 133.191C210.251 143.633 218.731 152.098 229.192 152.098Z" fill="#FD5457"/>
<path d="M256.925 211.572L173.442 170.844C173.337 170.794 173.237 170.735 173.142 170.667L246.052 121.662C246.501 121.355 247.024 121.172 247.568 121.132C248.111 121.092 248.655 121.197 249.144 121.436C249.634 121.674 250.051 122.038 250.353 122.491C250.655 122.943 250.832 123.467 250.865 124.01L254.931 182.75L255.127 185.562L256.925 211.572Z" fill="#4A382E"/>
<path opacity="0.2" d="M256.925 211.573L228.422 197.667L252.347 184.206L254.07 183.237L254.931 182.751L255.127 185.563L256.925 211.573Z" fill="#4A382E"/>
<path d="M303.407 234.25L231.201 199.023L255.127 185.563L256.849 184.592L288.027 167.05C290.071 165.9 293 167.195 293.664 169.395C293.708 169.544 293.742 169.696 293.766 169.85L303.407 234.25Z" fill="#4A382E"/>
<path d="M80.6196 240.962L88.4731 240.962L92.2099 210.722L80.6177 210.723L80.6196 240.962Z" fill="#FFB8B8"/>
<path d="M78.6155 238.403L94.0827 238.403H94.0834C95.3778 238.403 96.6596 238.657 97.8555 239.152C99.0514 239.646 100.138 240.371 101.053 241.284C101.969 242.198 102.695 243.283 103.19 244.476C103.685 245.67 103.94 246.95 103.94 248.242V248.561L78.616 248.562L78.6155 238.403Z" fill="#4A382E"/>
<path d="M19.5718 235.97L27.7091 237.559L37.7208 206.986L25.7116 204.641L19.5718 235.97Z" fill="#FFB8B8"/>
<path d="M18.0164 232.914L34.0414 236.043L34.042 236.043C35.3831 236.305 36.6594 236.828 37.7981 237.582C38.9367 238.337 39.9153 239.307 40.6781 240.439C41.4409 241.571 41.9728 242.842 42.2436 244.179C42.5144 245.516 42.5188 246.893 42.2564 248.232L42.1914 248.563L15.9539 243.44L18.0164 232.914Z" fill="#4A382E"/>
<path d="M92.0468 136.652C91.7809 135.75 91.3201 134.917 90.697 134.212C90.0738 133.508 89.3034 132.948 88.44 132.572C87.5766 132.197 86.6412 132.015 85.6997 132.039C84.7583 132.063 83.8336 132.294 82.9909 132.713L66.6201 116.74L64.3613 128.399L80.2536 141.78C81.0538 143.146 82.3283 144.172 83.8356 144.663C85.343 145.154 86.9785 145.077 88.4321 144.444C89.8858 143.812 91.0567 142.67 91.7229 141.234C92.3891 139.797 92.5043 138.167 92.0468 136.652Z" fill="#FFB8B8"/>
<path d="M31.3088 54.4339C39.9987 54.4339 47.0433 47.4021 47.0433 38.7279C47.0433 30.0537 39.9987 23.0219 31.3088 23.0219C22.6188 23.0219 15.5742 30.0537 15.5742 38.7279C15.5742 47.4021 22.6188 54.4339 31.3088 54.4339Z" fill="#FFB8B8"/>
<path d="M28.0033 54.6741C28.8393 55.0393 30.5512 48.3899 29.7844 47.0599C28.6439 45.0821 28.7113 45.0963 27.9542 43.7878C27.1971 42.4792 27.0277 40.6882 28.0081 39.5368C28.9886 38.3855 31.2574 38.5382 31.7048 39.9818C31.417 37.2398 34.134 35.0358 36.8254 34.4164C39.5168 33.797 42.3556 34.1815 45.0618 33.6304C48.2024 32.9907 51.4701 30.3629 50.2171 26.9155C50.002 26.3415 49.6801 25.8134 49.2682 25.359C47.8205 23.7341 45.7953 23.0403 43.8152 22.3695C39.6959 20.9738 35.4639 19.5607 31.1165 19.7148C27.5345 19.9017 24.0848 21.1269 21.1896 23.2404C18.2943 25.354 16.079 28.2641 14.8149 31.6148C14.5153 32.453 14.2832 33.3138 14.1208 34.1889C12.6286 42.1977 17.2879 50.0975 24.8554 53.1473L28.0033 54.6741Z" fill="#4A382E"/>
<path d="M24.1414 140.955C23.7401 140.713 23.4185 140.359 23.2161 139.937C23.0138 139.514 22.9395 139.042 23.0025 138.578L15.9023 103.471L8.70527 76.5267H8.70542C7.9153 73.5743 8.15394 70.4415 9.38216 67.6423C10.6104 64.8431 12.7553 62.5437 15.4649 61.1214L20.2229 56.6276L30.6026 61.0914L35.5348 66.0972C39.0724 67.8166 42.2105 70.2558 44.7473 73.258C47.2841 76.2603 49.1636 79.7591 50.2649 83.5296L58.1757 110.55L76.4447 137.681C76.7498 138.133 76.8924 138.675 76.8495 139.218C76.8065 139.762 76.5804 140.275 76.2081 140.673C73.6665 143.402 24.1414 140.955 24.1414 140.955Z" fill="#4A382E"/>
<path d="M72.004 138.461L45.065 119.827C41.3933 117.269 38.7352 113.509 37.5525 109.199L29.9802 81.5996C29.6983 80.5886 29.6223 79.5314 29.7567 78.4905C29.891 77.4497 30.2331 76.4463 30.7625 75.5396C31.4816 74.2877 32.5398 73.2636 33.8158 72.585C35.0917 71.9064 36.5335 71.6008 37.9756 71.7034C39.4177 71.806 40.8015 72.3126 41.9681 73.1649C43.1348 74.0173 44.0369 75.1808 44.5708 76.5219L55.8007 104.096L79.7284 126.763C79.9976 127.089 80.1767 127.48 80.2479 127.897C80.3191 128.314 80.2799 128.742 80.1342 129.139L75.5772 137.271C75.4191 137.74 75.1178 138.147 74.7159 138.436C74.3139 138.725 73.8314 138.881 73.336 138.883C72.8591 138.882 72.3939 138.735 72.004 138.461Z" fill="#4A382E"/>
<path d="M16.0386 231.291C15.8183 230.976 15.6773 230.613 15.6274 230.232C15.5775 229.851 15.6202 229.463 15.7519 229.102L28.2145 183.879L29.1357 139.567L71.0882 136.695L71.2919 136.681L83.9278 159.542C87.8839 166.689 90.3057 174.58 91.039 182.713L95.2031 228.262C95.266 228.881 95.0831 229.5 94.6937 229.986C94.3043 230.472 93.7395 230.787 93.1206 230.861L80.4709 232.062C79.8614 232.136 79.2471 231.97 78.7589 231.598C78.2708 231.226 77.9474 230.679 77.8579 230.073L72.7213 183.786L54.2393 152.615L48.0354 185.432L35.1826 230.75C35.0145 231.203 34.7126 231.593 34.3169 231.87C33.9212 232.147 33.4504 232.298 32.9671 232.301L17.9762 232.308C17.5946 232.309 17.2183 232.218 16.8804 232.04C16.5426 231.863 16.2535 231.606 16.0386 231.291Z" fill="#4A382E"/>
<path d="M337.269 380.025H21.1408C15.5359 380.019 10.1623 377.794 6.19899 373.838C2.23569 369.882 0.00633134 364.518 0 358.923V185.627C0.00633134 180.032 2.23569 174.668 6.19899 170.712C10.1623 166.756 15.5359 164.531 21.1408 164.524H59.9007C65.1598 164.52 70.2309 166.476 74.1195 170.011L116.152 199.97C118.893 202.47 122.471 203.855 126.184 203.852H339.232C342.034 203.852 344.809 204.408 347.394 205.488C349.979 206.568 352.323 208.15 354.29 210.142C356.257 212.134 357.807 214.497 358.851 217.093C359.895 219.689 360.412 222.466 360.371 225.263L358.408 359.231C358.304 364.767 356.034 370.042 352.083 373.928C348.133 377.814 342.816 380.003 337.269 380.025Z" fill="#FEFEFE"/>
<path d="M334.461 369.795H23.0112C20.3073 369.792 17.7151 368.718 15.8032 366.81C13.8913 364.901 12.8158 362.314 12.8127 359.615V183.485C12.8158 180.786 13.8913 178.198 15.8032 176.29C17.7151 174.382 20.3074 173.308 23.0112 173.305C25.4028 173.308 27.6956 174.257 29.3867 175.945C31.0777 177.633 32.029 179.922 32.0316 182.309V347.465C32.0345 349.994 33.0424 352.419 34.8343 354.208C36.6261 355.996 39.0555 357.002 41.5895 357.005H333.409C334.859 356.989 336.272 357.458 337.423 358.338C338.575 359.217 339.398 360.456 339.761 361.857C340.168 363.186 340.117 364.612 339.617 365.908C339.117 367.205 338.196 368.296 337.002 369.009C336.244 369.502 335.365 369.774 334.461 369.795Z" fill="#E6E6E6"/>
<path opacity="0.75" d="M188.514 241.319C197.045 241.319 205.385 243.849 212.478 248.589C219.572 253.328 225.1 260.065 228.365 267.946C231.629 275.828 232.484 284.501 230.819 292.868C229.155 301.235 225.047 308.921 219.015 314.953C212.982 320.986 205.297 325.094 196.929 326.758C188.562 328.422 179.889 327.568 172.008 324.303C164.126 321.039 157.39 315.51 152.65 308.417C147.91 301.323 145.381 292.984 145.381 284.453C145.391 273.016 149.938 262.051 158.025 253.964C166.112 245.877 177.078 241.329 188.514 241.319ZM188.514 235.641C178.86 235.641 169.423 238.504 161.396 243.867C153.369 249.231 147.113 256.854 143.418 265.773C139.724 274.693 138.757 284.507 140.641 293.976C142.524 303.444 147.173 312.142 153.999 318.968C160.826 325.794 169.523 330.443 178.992 332.327C188.46 334.21 198.275 333.244 207.194 329.549C216.113 325.855 223.736 319.598 229.1 311.571C234.463 303.544 237.326 294.107 237.326 284.453C237.326 271.507 232.183 259.092 223.029 249.938C213.876 240.784 201.46 235.641 188.514 235.641Z" fill="#FD5457"/>
<path d="M337.269 380.025H21.1408C15.5359 380.019 10.1623 377.794 6.19899 373.838C2.23569 369.882 0.00633134 364.518 0 358.923V185.627C0.00633134 180.032 2.23569 174.668 6.19899 170.712C10.1623 166.756 15.5359 164.531 21.1408 164.524H59.9007C65.1598 164.52 70.2309 166.476 74.1195 170.011L116.152 199.97C118.893 202.47 122.471 203.855 126.184 203.852H339.232C342.034 203.852 344.809 204.408 347.394 205.488C349.979 206.568 352.323 208.15 354.29 210.142C356.257 212.134 357.807 214.497 358.851 217.093C359.895 219.689 360.412 222.466 360.371 225.263L358.408 359.231C358.304 364.767 356.034 370.042 352.083 373.928C348.133 377.814 342.816 380.003 337.269 380.025ZM21.1408 165.803C15.8756 165.809 10.8277 167.9 7.1046 171.616C3.38151 175.332 1.28724 180.371 1.28126 185.627V358.923C1.28724 364.179 3.38151 369.217 7.1046 372.934C10.8277 376.65 15.8756 378.74 21.1408 378.746H337.269C342.48 378.725 347.475 376.669 351.186 373.019C354.897 369.368 357.029 364.413 357.127 359.213L359.09 225.244C359.128 222.616 358.643 220.008 357.662 217.569C356.682 215.131 355.225 212.911 353.377 211.04C351.53 209.168 349.327 207.682 346.899 206.667C344.471 205.653 341.865 205.131 339.232 205.131H126.184C122.165 205.134 118.29 203.64 115.317 200.941L73.2846 170.981C69.6284 167.646 64.8535 165.799 59.9007 165.803H21.1408Z" fill="#4A382E"/>
<path d="M364.061 383.399H356.207L353.752 353.16L364.062 353.161L364.061 383.399Z" fill="#FFB8B8"/>
<path d="M366.063 391L340.739 390.999V390.679C340.739 389.387 340.993 388.108 341.489 386.914C341.984 385.72 342.71 384.636 343.626 383.722C344.541 382.808 345.628 382.084 346.823 381.589C348.019 381.095 349.301 380.84 350.596 380.84H350.596L366.063 380.841L366.063 391Z" fill="#4A382E"/>
<path d="M451.826 383.399H443.972L440.236 353.16L451.827 353.161L451.826 383.399Z" fill="#FFB8B8"/>
<path d="M453.831 391L428.506 390.999V390.679C428.506 389.387 428.761 388.108 429.257 386.914C429.752 385.72 430.478 384.636 431.393 383.722C432.309 382.808 433.395 382.084 434.591 381.589C435.787 381.095 437.069 380.84 438.363 380.84H438.364L453.831 380.841L453.831 391Z" fill="#4A382E"/>
<path d="M426.002 289.917C427.086 288.649 427.697 287.045 427.731 285.378C427.765 283.711 427.22 282.083 426.189 280.772C425.98 280.521 425.75 280.287 425.503 280.074L431.418 258.273L421.559 261.539L417.453 281.74C416.771 282.986 416.47 284.403 416.586 285.818C416.702 287.232 417.229 288.582 418.105 289.701C418.562 290.305 419.15 290.798 419.825 291.145C420.499 291.491 421.243 291.682 422.001 291.703C422.76 291.724 423.513 291.574 424.205 291.265C424.898 290.956 425.512 290.495 426.002 289.917Z" fill="#FFB8B8"/>
<path d="M425.622 276.507C425.499 276.507 425.375 276.497 425.253 276.479L420.115 275.706C419.716 275.637 419.336 275.482 419.003 275.251C418.669 275.021 418.39 274.72 418.185 274.371C417.74 273.627 417.58 272.747 417.735 271.894L424.145 236.16L419.798 213.202C418.959 208.784 421.122 204.321 424.827 202.822C425.927 202.373 427.124 202.217 428.302 202.367C429.48 202.518 430.599 202.971 431.55 203.682C432.575 204.457 433.425 205.439 434.046 206.563C434.666 207.688 435.043 208.93 435.151 210.21L438.227 239.482L438.191 239.61L428.289 274.3C428.146 274.908 427.808 275.452 427.327 275.85C426.846 276.249 426.247 276.479 425.622 276.507Z" fill="#FD5457"/>
<path d="M424.105 190.172C432.795 190.172 439.84 183.14 439.84 174.466C439.84 165.792 432.795 158.76 424.105 158.76C415.415 158.76 408.371 165.792 408.371 174.466C408.371 183.14 415.415 190.172 424.105 190.172Z" fill="#FFB8B8"/>
<path d="M416.049 247.474C415.657 247.474 415.269 247.402 414.903 247.261L390.033 237.713C389.36 237.456 388.794 236.98 388.426 236.362C388.058 235.743 387.911 235.018 388.008 234.306L389.007 226.829C388.414 224.178 388.469 221.424 389.166 218.798C389.863 216.173 391.181 213.753 393.011 211.743L393.616 211.078L400.974 197.685C401.473 196.778 402.146 195.978 402.956 195.332C403.766 194.685 404.695 194.205 405.692 193.92C406.688 193.634 407.731 193.548 408.761 193.666C409.791 193.785 410.787 194.106 411.692 194.611L424.686 201.859C426.396 202.811 427.687 204.368 428.305 206.223C430.054 211.475 429.924 217.169 427.939 222.335L419.042 245.424C418.807 246.026 418.396 246.544 417.862 246.909C417.328 247.275 416.697 247.472 416.049 247.474Z" fill="#FD5457"/>
<path d="M350.874 375.975L350.84 375.969C350.416 375.887 350.013 375.721 349.655 375.48C349.297 375.239 348.991 374.928 348.756 374.566C348.522 374.204 348.363 373.799 348.289 373.374C348.215 372.949 348.229 372.514 348.328 372.094L367.386 288.938C370.506 275.755 374.816 262.882 380.264 250.476L388.372 232.023L418.626 245.81L422.946 253.697C426.314 262.48 428.046 271.803 428.056 281.208L458.797 371.138C458.947 371.577 459 372.043 458.951 372.505C458.903 372.966 458.754 373.411 458.516 373.81C458.278 374.208 457.955 374.55 457.571 374.811C457.188 375.073 456.751 375.248 456.293 375.324L439.464 375.134C439.305 375.163 439.144 375.176 438.983 375.175C438.345 375.175 437.722 374.985 437.194 374.627C436.666 374.27 436.258 373.762 436.022 373.17L400.881 282.247C400.831 282.126 400.745 282.023 400.635 281.953C400.525 281.882 400.396 281.846 400.265 281.85C400.137 281.853 400.013 281.894 399.909 281.969C399.806 282.044 399.728 282.15 399.686 282.27L366.343 373.647C366.087 374.357 365.587 374.954 364.931 375.33C364.275 375.706 363.507 375.837 362.763 375.699L350.874 375.975Z" fill="#4A382E"/>
<path d="M373.881 273.714C374.768 273.398 375.576 272.893 376.246 272.233C376.916 271.573 377.434 270.774 377.761 269.892C378.089 269.011 378.219 268.069 378.143 267.132C378.066 266.195 377.785 265.286 377.318 264.469L392.387 247.267L380.6 245.663L368.097 262.244C366.775 263.118 365.819 264.445 365.412 265.974C365.004 267.504 365.173 269.13 365.886 270.543C366.598 271.957 367.806 273.061 369.28 273.645C370.753 274.229 372.39 274.254 373.881 273.714Z" fill="#FFB8B8"/>
<path d="M380.985 261.595C380.46 261.595 379.944 261.466 379.481 261.221L374.178 258.397C373.789 258.19 373.446 257.905 373.173 257.56C372.899 257.214 372.7 256.816 372.588 256.391C372.475 255.965 372.452 255.521 372.52 255.086C372.587 254.651 372.744 254.234 372.981 253.863L392.567 223.055L395.964 199.806C396.139 198.604 396.557 197.451 397.193 196.415C397.828 195.38 398.667 194.484 399.659 193.781C400.652 193.079 401.777 192.585 402.966 192.329C404.155 192.073 405.384 192.06 406.578 192.292C407.772 192.524 408.907 192.996 409.913 193.678C410.919 194.361 411.776 195.24 412.432 196.262C413.088 197.285 413.53 198.43 413.729 199.628C413.929 200.826 413.883 202.051 413.595 203.231L406.582 231.886L383.479 260.409C383.179 260.781 382.799 261.08 382.367 261.286C381.935 261.491 381.463 261.597 380.985 261.595Z" fill="#FD5457"/>
<path d="M409.944 161.508C411.764 155.55 422.279 152.892 431.019 155.364C439.759 157.836 446.038 164.317 447.5 170.653C450.736 184.684 433.854 196.072 436.913 210.105C438.937 219.39 450.646 228.168 463.833 230.288C449.3 233.323 431.562 230.655 418.085 223.408C409.698 218.897 402.661 212.09 402.767 205.224C402.831 201.067 405.481 197.391 408.721 194.215C411.96 191.039 415.839 188.216 418.812 184.901C421.785 181.586 423.845 177.617 422.977 173.409C422.11 169.201 417.702 164.812 411.77 163.588L409.944 161.508Z" fill="#4A382E"/>
<g opacity="0.75">
<path d="M211.237 290.344V300.443C211.237 301.782 210.705 303.067 209.758 304.014C208.811 304.96 207.527 305.492 206.187 305.492H170.841C169.502 305.492 168.217 304.96 167.27 304.014C166.324 303.067 165.792 301.782 165.792 300.443V290.344" stroke="#FD5457" stroke-width="3.5" stroke-linecap="round" stroke-linejoin="round"/>
<path d="M201.138 272.671L188.514 260.047L175.89 272.671" stroke="#FD5457" stroke-width="3.5" stroke-linecap="round" stroke-linejoin="round"/>
<path d="M188.514 260.047V290.344" stroke="#FD5457" stroke-width="3.5" stroke-linecap="round" stroke-linejoin="round"/>
</g>
</svg>
